<?xml version="1.0" encoding="UTF-8"?>
<svg id="Layer_1" xmlns="http://www.w3.org/2000/svg" version="1.1" xmlns:xlink="http://www.w3.org/1999/xlink" viewBox="0 0 1200 520">
  <!-- Generator: Adobe Illustrator 30.4.0, SVG Export Plug-In . SVG Version: 2.1.4 Build 226)  -->
  <defs>
    <style>
      .st0 {
        fill: #17d7e5;
      }

      .st1, .st2, .st3 {
        fill: #fff;
      }

      .st4 {
        stroke-opacity: .14;
      }

      .st4, .st5, .st6, .st7 {
        fill: none;
      }

      .st4, .st5, .st7 {
        stroke: #0ecbd3;
        stroke-width: 2px;
      }

      .st5 {
        stroke-opacity: .18;
      }

      .st8 {
        fill: #020606;
      }

      .st9 {
        fill: url(#radial-gradient);
      }

      .st10 {
        fill: #1bd8e6;
        opacity: .54;
      }

      .st10, .st11, .st12, .st13, .st2, .st14, .st3 {
        isolation: isolate;
      }

      .st12 {
        opacity: .1;
      }

      .st13 {
        fill: #31d7e6;
        font-family: Inter-SemiBold, Inter;
        font-size: 51px;
        font-weight: 600;
      }

      .st2 {
        font-family: Inter-ExtraBold, Inter;
        font-size: 66px;
        font-weight: 700;
      }

      .st7 {
        stroke-opacity: .22;
      }

      .st14 {
        fill: url(#dots);
        opacity: .95;
      }

      .st3 {
        opacity: .96;
      }
    </style>
    <radialGradient id="radial-gradient" cx="587.96" cy=".85" fx="587.96" fy=".85" r=".62" gradientTransform="translate(-705012 -270) scale(1200 520)" gradientUnits="userSpaceOnUse">
      <stop offset="0" stop-color="#27e7f2" stop-opacity=".34"/>
      <stop offset=".48" stop-color="#0a7579" stop-opacity=".14"/>
      <stop offset="1" stop-color="#000" stop-opacity="0"/>
    </radialGradient>
    <pattern id="dots" x="0" y="0" width="22" height="22" patternTransform="translate(-16.1475 16946.2914) rotate(-8) skewX(-7.847)" patternUnits="userSpaceOnUse" viewBox="0 0 22 22">
      <g>
        <rect class="st6" width="22" height="22"/>
        <g>
          <rect class="st6" width="22" height="22"/>
          <circle class="st10" cx="3" cy="3" r="1.7"/>
        </g>
      </g>
    </pattern>
  </defs>
  <rect class="st8" width="1200" height="520"/>
  <rect class="st9" width="1200" height="520"/>
  <g>
    <path class="st7" d="M-100,384C230,184,470,164,1220,72"/>
    <path class="st5" d="M-100,430C290,230,520,190,1220,116"/>
    <path class="st4" d="M-100,476c430-182,700-242,1320-314"/>
    <polygon class="st14" points="-40 29.62 1240 -150.27 1240 369.73 -40 549.62 -40 29.62"/>
  </g>
  <g class="st12">
    <ellipse class="st0" cx="575" cy="260" rx="325" ry="96"/>
  </g>
  <g>
    <path class="st1" d="M368.28,181.45l65,11.46-30.98,77.8-91.58,18.38,57.57-107.64h0Z"/>
    <path class="st3" d="M417.72,363.55l-65-11.46,30.98-77.8,91.58-18.38-57.57,107.64h0Z"/>
  </g>
  <g class="st11">
    <text class="st2" transform="translate(498 270)"><tspan x="0" y="0">Simple</tspan></text>
  </g>
  <g class="st11">
    <text class="st13" transform="translate(498 333.66)"><tspan x="0" y="0">PLAYGROUND</tspan></text>
  </g>
</svg>